<?xml version="1.0" standalone="no"?><!-- Generator: Gravit.io --><svg xmlns="http://www.w3.org/2000/svg" xmlns:xlink="http://www.w3.org/1999/xlink" style="isolation:isolate" viewBox="0 0 256 256" width="256" height="256"><g id="null"><path d=" M 9.5 128 C 9.5 62.598 62.598 9.5 128 9.5 C 193.402 9.5 246.5 62.598 246.5 128 C 246.5 193.402 193.402 246.5 128 246.5 C 62.598 246.5 9.5 193.402 9.5 128 Z " fill="rgb(63,43,106)"/><path d=" M 128 34.447 C 76.234 34.447 34.447 76.234 34.447 128 C 34.447 179.766 76.234 221.553 128 221.553 C 179.766 221.553 221.553 179.766 221.553 128 C 221.553 76.234 179.766 34.447 128 34.447 Z " fill="rgb(23,0,72)"/></g><g id="null"><path d=" M 154.603 91.177 C 154.076 90.772 153.468 90.528 152.778 90.528 C 152.657 90.528 152.535 90.528 152.413 90.569 C 148.439 89.555 144.303 89.028 140.004 89.028 L 79.903 89.028 C 78.241 89.028 76.902 90.366 76.902 92.029 C 76.902 93.692 78.241 95.03 79.903 95.03 L 140.004 95.03 C 143.37 95.03 146.614 95.395 149.777 96.084 L 149.777 112.265 C 149.777 119.32 144.058 125.04 137.003 125.04 L 131.569 125.04 C 115.631 125.04 100.91 116.402 93.083 102.532 C 92.544 101.584 91.538 100.996 90.447 100.991 L 79.944 100.991 C 74.956 100.991 70.941 96.936 70.941 91.988 C 70.941 87 74.996 82.985 79.944 82.985 L 170.054 82.985 C 175.002 82.985 179.057 78.93 179.057 73.982 C 179.057 69.035 175.002 64.98 170.054 64.98 L 167.053 64.98 C 165.391 64.98 164.052 66.318 164.052 67.981 C 164.052 69.643 165.391 70.982 167.053 70.982 L 170.054 70.982 C 171.717 70.982 173.055 72.32 173.055 73.982 C 173.055 75.645 171.717 76.983 170.054 76.983 L 79.903 76.983 C 71.63 76.983 64.898 83.715 64.898 91.988 C 64.898 100.261 71.63 106.993 79.903 106.993 L 88.703 106.993 C 93.408 114.698 100.018 120.863 107.764 125.04 L 103.952 125.04 C 103.059 125.04 102.167 125.445 101.6 126.175 L 89.596 141.18 C 88.541 142.478 88.785 144.384 90.082 145.398 C 90.65 145.844 91.299 146.046 91.948 146.046 C 92.84 146.046 93.692 145.641 94.3 144.911 L 105.412 131.001 L 115.753 131.001 L 107.642 141.139 C 106.588 142.437 106.831 144.343 108.129 145.357 C 108.696 145.803 109.345 146.006 109.994 146.006 C 110.886 146.006 111.738 145.6 112.346 144.87 L 123.458 130.96 L 133.799 130.96 L 125.688 141.099 C 124.634 142.397 124.877 144.303 126.175 145.316 C 126.743 145.763 127.392 145.965 128.041 145.965 C 128.933 145.965 129.784 145.56 130.393 144.83 L 141.18 131.366 C 144.303 131.974 147.182 133.313 149.656 135.137 L 143.978 140.815 C 143.114 141.673 142.852 142.967 143.314 144.094 C 143.775 145.221 144.869 145.959 146.087 145.965 C 146.857 145.965 147.628 145.681 148.196 145.073 L 153.873 139.396 C 155.995 142.209 157.363 145.517 157.848 149.007 L 149.047 149.007 C 147.385 149.007 146.046 150.345 146.046 152.008 C 146.046 153.67 147.385 155.009 149.047 155.009 L 157.848 155.009 C 157.344 158.481 155.978 161.772 153.873 164.579 L 148.155 158.861 C 146.967 157.761 145.122 157.796 143.977 158.941 C 142.831 160.086 142.796 161.932 143.897 163.119 L 149.615 168.838 C 145.965 171.576 141.525 173.055 136.962 173.055 C 135.949 173.055 133.515 173.055 132.096 173.015 L 118.875 161.984 C 113.998 157.865 107.164 156.977 101.397 159.713 C 95.596 162.386 91.899 168.209 91.948 174.596 C 91.948 183.64 99.329 191.02 108.372 191.02 L 140.004 191.02 C 149.493 191.02 158.375 188.425 165.999 183.883 C 167.098 183.831 168.087 183.197 168.594 182.22 C 178.8 175.317 186.172 164.964 189.358 153.062 C 189.439 152.819 189.52 152.576 189.561 152.332 C 190.574 148.358 191.102 144.181 191.102 139.923 C 191.061 117.01 175.651 97.463 154.603 91.177 L 154.603 91.177 Z  M 148.034 127.473 C 152.697 124.066 155.739 118.51 155.739 112.306 L 155.739 97.909 C 162.917 100.586 169.203 105.047 174.11 110.765 L 153.833 131.042 C 152.067 129.599 150.117 128.399 148.034 127.473 L 148.034 127.473 Z  M 97.95 174.758 C 97.95 170.622 100.18 167.094 103.952 165.309 C 107.599 163.558 111.935 164.114 115.023 166.729 L 128 177.516 L 128 185.14 L 108.372 185.14 C 102.613 185.181 97.95 180.517 97.95 174.758 Z  M 134.002 185.181 L 134.002 179.179 L 136.962 179.179 C 143.37 179.179 149.25 176.948 153.873 173.217 L 160.727 180.071 C 154.331 183.412 147.22 185.151 140.004 185.14 L 134.002 185.14 L 134.002 185.181 L 134.002 185.181 Z  M 165.999 176.908 L 158.091 169 C 161.213 165.107 163.282 160.362 163.849 155.13 L 182.464 155.13 C 179.341 163.971 173.501 171.555 165.999 176.908 Z  M 184.126 149.128 L 163.849 149.128 C 163.296 144.05 161.298 139.236 158.091 135.259 L 177.759 115.591 C 182.506 122.893 185.028 131.417 185.018 140.126 C 185.059 143.208 184.735 146.209 184.126 149.128 Z  M 109.954 101.072 C 111.611 101.072 112.955 102.416 112.955 104.073 C 112.955 105.731 111.611 107.074 109.954 107.074 C 108.296 107.074 106.953 105.731 106.953 104.073 C 106.953 102.416 108.296 101.072 109.954 101.072 Z " fill="rgb(255,71,71)"/></g></svg>